<mxfile host="app.diagrams.net" modified="2022-05-11T02:20:17.495Z" agent="5.0 (Windows NT 10.0; Win64; x64) AppleWebKit/537.36 (KHTML, like Gecko) Chrome/101.0.4951.54 Safari/537.36 Edg/101.0.1210.39" etag="csfwooIMlS69_6C2pwo8" version="17.5.0" type="github">
  <diagram id="xlL8mKpRm5toJEbIdE6V" name="Page-1">
    <mxGraphModel dx="1550" dy="835" grid="0" gridSize="10" guides="1" tooltips="1" connect="1" arrows="1" fold="1" page="0" pageScale="1" pageWidth="1200" pageHeight="1920" math="0" shadow="0">
      <root>
        <mxCell id="0" />
        <mxCell id="1" parent="0" />
        <mxCell id="lhB-HofFmi6Uz1J4btd7-30" value="" style="shape=image;verticalLabelPosition=bottom;labelBackgroundColor=default;verticalAlign=top;aspect=fixed;imageAspect=0;image=data:image/png,iVBORw0KGgoAAAANSUhEUgAABJoAAAJzCAMAAABwLInEAAAAAXNSR0IArs4c6QAAAARnQU1BAACxjwv8YQUAAADqUExURQAAAAAAAAAAAAAAAAAAAAAAAAAAAAAAAAAAAAAAAAAAAAAAAAAAAAAAAAAAAAAAAAAAAAAAAAAAAAAAAAAAAAAAAAAAAAAAAAAAAAAAAAAAAAAAAAAAAAAAAAAAAAAAAAAAAAEBAQAAAAAAAAEBAQAAAAcHBw8PDwAAAAEBAQcHBwgICA8PDxAQEBcXFxgYGCAgICgoKDAwMDg4OEBAQEhISFBQUFhYWGBgYGhoaHBwcHh4eH9/f4CAgIeHh4+Pj5eXl5+fn6enp6+vr7e3t7+/v8fHx8/Pz9fX19/f3+fn5+/v7/f39////1OqOfsAAAAodFJOUwAIEBggKDA4QEhQWGBocHiAh4+Xn6evt7/Hz9ff5+jv8PD3+Pj+/v53Dyh7AAAACXBIWXMAABcRAAAXEQHKJvM/AAA4xUlEQVR4Xu3de0PbOrr24UJpFz1R2lIaKGxmmOmM1s7m5ZQC5VBODYcQf/+v88rxk8SJZTuQBEnW7/pj1U0Jy5Ef35Fl2X7hlZn5D4ufazWF8a3UlhYX5l9Ky2JElOAEVaUGX35Ylk+EyVlZeCXti1KU4FR4XoPvV+IPsX9yetFstiOMrdm8PD1txI36fXFWGhlFKMFJq0INvllVqn5w2ZKPhElpXx1tK7W+IO2MXJTgtPhcg6/1of3uFV9UU9L8qdTaW2lrGFGC0+VpDX5WavtCPgKmobmn1DJHdfkowanzsAZn9ffVKV9XU3a1pb4zHp6DEnwWvtXg6zW11ZR1x/Tc76l/clBnRAk+E79q8O2/1d69rDmm6eFAqY/S6kihBJ+NTzX4+t/qkJ70MzlV6p20O3oowefkTQ3OrqlDWWdM32+1+VpaHoISfF6+1GBN7fGF9YwO1RpXrgyiBJ+ZHzX4WW1xkP+c2vuqNiONjxgl+Ny8qMHXSnFi5Hm1thUTw1MowefnQw2uqHNZWzyXa7XO1Ms+StAC92vwrdrmKP/ZNdRnaX9Qgna4XoMzq+pKVhXP51ZtMhIuKEE7XK/BBbUna4rndEC3qYsStMTxGlxV17KieE76K4uTdAlK0BK3a3BObXGYb0VDcS1dByVojdM1uMAkXEt+qyXZBoGjBK1xugZrjEBacqc2ZBsEjhK0xuUanFX1B1lNPLNdNS9bIWiUoEUO1+A79VNWEs/tRC3KVggaJWiRwzW4oE5kJfHcLhlsilGCFjlcg5+4QsCapvomWyFolKBFDtfgV4YgrblTq7IVgkYJWuRwDda44tuaB7UuWyFolKBFDtfgmuI2OdbUlWyFoFGCNrlbg0oxEdcaoilGCdrkcjTJKuL5KaJJowRtcrcGqQuLiKYYJWgT0QQDoilGCdpENMGAaIpRgjYRTTAgmmKUoE1EEwyIphglaBPRBAOiKUYJ2kQ0wYBoilGCNhFNMCCaYpSgTUQTDIimGCVoE9EEA6IpRgnaRDTBgGiKUYI2EU0wIJpilKBNRBMMiKYYJWgT0QQDoilGCdpENMGAaIpRgjYRTTAgmmKUoE1EEwyIphglaBPRBAOiKUYJ2kQ0wYBoilGCNhFNMCCaYpSgTUQTDIimGCVoE9EEA6IpRgnaRDTBgGiKUYI2EU0wIJpilKBNRBMMiKYYJWgT0QQDoilGCdpENMGAaIpRgjYRTTAgmmKUoE1EEwyIphglaBPRBAOiKUYJ2kQ0wYBoilGCNhFNMCCaYpSgTUQTDIimGCVoE9EEA6IpRgnaRDTBgGiKUYI2EU0wIJpilKBNRBMMiKYYJWgT0QQDoilGCdpENMGAaIpRgjYRTTAgmmKUoE1EEwyIphglaBPRBAOiKUYJ2kQ0jaOhOuqNg9OLtrzWezWxk/eS04immPsl2JSSSjnSL9/LcuIy/knDS44jmsaRTpzt3uYmmiqCaLKJaBpHQzXiP1rNy191pfal49RQe82em7yXnEY0xdwvwQcpqSulTmTxTr+sc+hc/qq14p80vOQ4omkcEk2x1pFSx8li6tUuw0tOI5piPpRgQgdPuiOk/9qUxS7DS44jmsYxkDgHSnW7SERTJRBNNhFN4xhInJZS550FoqkiiCabiKZxDCbOTmcIkmiqDKLJJqJpHIOJ0/0b0VQRRJNNRNM4BhNnRx12/iSaKoJosoloGsdA4jwo9buzQDRVBNFkE9E0joHEOVLqtrNANFUE0WQT0TSOdOKcp+Y19edXJmFleslpRFPM52jqz698yHvJcUTTOHrRdHO1p9TP3mzwPvl3w0tOI5piPkdTX9JZMrzkOKJpHOnEqScDTVpDbTW6eh2pzEtOI5piPkfTnlRbo5H00g0vOY5oGkc/mg6v0nceyHSMGGvykc/RxFjT9PgRTZ3Eua2rk87fE0RTRRBNNhFN4+gmzkn38rkOoqkiiCabiKZxdBOnvat2OaCrHKLJJqJpHL3EaarUIR3RVBFEk01E0zj6ifMrdUhHNFUE0WQT0TSOfuI8bKu97iEd0VQRRJNNRNM4UolzpdSpLBJNFUE02UQ0jSOdOAeq3rsqhWiqBKLJJqJpHOnEaW11D+mIpoogmmwimsYxkDgX3UO69FUpjUbn+hXDS04jmmI+R1P/qpRGI35+iuElxxFN4xjsDO3LId3AQ+eSm/IaXnIa0RTzOZrS7s0vOY5oGsftwB1OWslDwPSraXkvOY1oivkTTe3BR8vpv6bF4wyGlxxHNMGAaIpRgjYRTTAgmmKUoE1EEwyIphglaBPRBAOiKUYJ2kQ0wYBoilGCNhFNMCCaYpSgTUQTDIimGCVoE9EEA6IpRgnaRDTBgGiKUYI2EU0wIJpilKBNRBMMiKYYJWgT0QQDoilGCdpENMGAaIpRgjYRTTAgmmKUoE1EEwyIphglaBPRBAOiKUYJ2kQ0wYBoilGCNhFNMCCaYpSgTUQTDIimGCVoE9EEA6IpRgnaRDTBgGiKUYI2EU0wIJpilKBNRBMMiKYYJWgT0QQDoilGCdpENMGAaIpRgjYRTTAgmmKUoE1EEwyIphglaBPRBAOiKUYJ2kQ0wYBoilGCNhFNMCCaYpSgTUQTDIimGCVoE9EEA6IpRgnaRDTBgGiKUYI2EU0wIJpilKBNRBMMiKYYJWgT0QQDoilGCdpENMGAaIpRgjYRTTAgmmKUoE1EEwyIphglaBPRBAOiKUYJ2kQ0wYBoilGCNrlbg+vqXtYRz26baNIoQZvcrcEVdSPriGenNmQrBI0StMndGlxW17KOeG736rtshaBRghY5XINf1IWsJJ7bjarJVggaJWiRwzX4UZ3KSuK5Xasl2QpBowQtcrgG36tDWUk8twv1SbZC0ChBixyuwVdqS1YSz62h3slWCBolaJHLNbimmrKWeF4P/9mclY0QNkrQGqdr8JM6kdXE87pkFDxBCVrjdA3Oq11ZTTyvQ/VBtkHgKEFr3K7BDXUn64nn1P6vmpNNEDpK0BLHa/Cz+iUriud0rlZkCwSPErTE8Rp8ualuZU3xfFr/VW9lCwSPErTD+Rr8rA5kVfF8jtWytD8oQTucr8GZdfVH1hXPpVVXr6X9QQla4UENLqidB1lbPJMDOk1plKAFHtTgzKpqtGV18SxO1Aan51IowefnRQ3OratjWV88hyul3kjbo4MSfG6e1OD8v7kxxTO6+Y9akJaHoASflzc1+EH950rWGdN281/1RdodPZTgc/KoBr8oOtTP5Oo/6tuMNDv6KMHn41UNLih1wEmSZ3Ci1BeSyYQSfC6e1eD8P9Uuc3KnrXWgGGfKQwk+C/9q8NV3pQ557s40PZzW1Qbn5nJRgtPnZQ3Oft7Uh/st+QiYtPb5llLLr6S1YUAJTpm3NTi3pFT94JLSmLz29dG2UrW/pKWRgxKcHr9r8PU3pe1fNrkn6uTcNK8O6rpZV7nXwAgowWmoQg2+/LAcl4a2I39iHLvy58oCh3IjogQnrDo1OPPuU622Jh8H49qo1T6/fylti5FQgpNFDQ5T8qfHZlaZheSZSmyyCuw6TqtA+y4wD8k3ldhkRNN0+d++M+tqnW6TV6qxyYim6fK/fRf0gTrdJq9UY5MRTdPlffvqb2BFt8krFdlkRNN0ed++8Tcw3SavVGSTEU3T5Xv7dr6B6Tb5pCqbjGiaLt/bN/kGptvkkapsMqJpujxvX/kGptvkj8psMqJpujxv3+43MN0mb1RmkxFN0+V3+/a+gek2+aI6m4xomi6/27f/DUy3yRPV2WRE03RVoX2pEe9QdihDjcACyg5lqBFYQNmhDDUCCyg7lKFGYAFlhzLUCCyg7FCGGoEFlB3KUCOwgLJDGWoEFlB2KEONwALKDmWoEVhA2aEMNQILKDuUoUZgAWWHMtQILKDsUIYagQWUnYfe/iULz4MagQWU3cS8r8U351tbmpO/v3hRq9U+ymLKR/2yLHa8W+rc1O/7l9fyQpkPSq2+f8a7/1EjsICym5C/VuN86ejFkV7enJXlns7dRWVZ+2ul856OlcwPmyx2fnb900v5+9RRI7CAspuMmTW18TEOizc1pRaT1+Joyt5A9F38qizrv20qVVucn30x/15n1Fq/x5VrKX5/x9dnOq6jRmABZTcZn9Vm93hsWalXyZJOHfU9WexbUd/60fRG96vey/KL9/pATRZzzXyVXOp4nuM6agQWUHaTsa6+yFJ8xPY5WVJKd5HeJMtdrzsvyl9erKqNVNfnQ+ld2md1rA14juM6agQWUHYTMasDRxZ1D2pNYkqp99/UcrLc9VnVdO9I/vJWqbey2LGqlmTJbLY/oNU39eM6agQWUHYToftC87KYoqNJ95AGujUzm+pdP5pWh4735orHmubWJI2GrPaOCaeCGoEFlN1E6F6T4VBMR5M+uvskf+tYUOszvWjSufWYx2y97j85cNj64hSP66gRWEDZTYbxUExH04tPgw8gXdVJ1Yumz2rjEcPYf21IDpktTe24jhqBBZTdZHyOY2hY/NrL9CjUi7+UmutH03L5Gbm+N5uSQblWpnRcR43AgvDKbn5h8UtNW1pcnJ/cqffZ70p9Hj6o6sTVslqRv2pf1bfOJIHkb6vDY+QF9JvKTee4jmiCBWGV3cv3y4N9j28fRpjkOJK5+HDra6qDpHWi6Y1SvStQXm7GZ+R60bTZnWVQ7mOyvuWmcFxHNMGCkMpuvia774DVgdP3TzfXmaa9sZSax5Qc5H3vT3laUOv6v91o0sd6hkvsjPTx4sgmflwXejT1+9kf50e6lAji1bvFxW9x0y0uvh/1CtGecMrOHEyxSYXTyw+d/8VaL5ySaFroX0i31rmGpRtNc0p96CyU6l+cMpKVyc4RDzma5j4M9bNXFp/p8iDfzbz9MjjXZX3p3aPqMpSym8sNptiqYVLSk7z8EE+K7F9DF0fT7GZ3ioA+tovHgrrRNKMGJxbkmfmmfiTrOYofI14lPLpwo+mtaYqrWl+YbPRX0dzABVU9Xx/Rdwqk7N7+Q9omz6hHVuXe6u8KOaSShS/diZXLybB3b6xpXX1NFgrNpu5NMIqlSe84oUaTOZhihFOxZHDDaHnkcAqj7D5JuxRYnlhXY26tO5VJoum1XEj3Uv7sRdOKGrhxk9lc7g5i9phJnKMJM5peFbb7+oQGAapo9os0ktnyiGeeQii72Vr5AdEP9X1S5+ri6EnGI7rdp5Wkt7So1jp/7UXTV3mhyKuci1NybExhlwkymt7/S1o0z8gnV0Pzuqxi/zFajQZQdjOFw0x9a5OaE/SqO8uyG03JhXQz63LY2Ism3Zkr696+Lp4CPmzt0edBRhBgNM0Uf/FrP1RtGnPI/PehLNO1kYZYAyg784CcweqkBhC6Q1fdaNKhtBjfZmAzKeZeNOkjvd68go6Z4Wp/UzZGlqa7hl/eTOHsdnjRNLta3s/WB3XT+B7w3Sgnk3Wsj1Cm1S+7T6NUWeKbvOXxvqYzZrZ7q5NuNOl10Edu37qD3r1oerHcTSvxaXPwSrx3I3wDDfu+9GHCu0xw0WS894zB/0xsDKAyRp3mUivvBlS+7D6Mnkw/RutomnzpzKUU893bXPai6aVS83O9+6b0o0l3m9L/y5ebg6fsPsiKPdpm7dPbyR1uhBZNo44ATHAMoCpG7weUX6JV9bLrPCRgZJty59xH+ys9/aDWzaleNOnu0dJi795M/WjSr/d+pPNlPdCJSp5P8GRrXxcmMzswsGiaGb6TaIHVKRw/e2zky6l0gg0OZRhUveyyu3cjTV7rGf1y2yE6Y+SsfXzqVOaD93Pnrdpc653WT0VTfHO4T9K3ndeHEf2cevQUcLPa53djH3UEFk2PuShopIlpwXgjjTKKH6VXQlS87PQh0pB6lCYvdv2Qs/6PNxM/D2Xx3fzCJ91N655XTkWNjqBejygVTS/mvsfX3S2+WVjURxGbqbOqg88nGMv68sexZruHFU3Zkok1js9+bslyytMLpoJmHjfPZXCYNaviZZf9BtyJoptmj7zY94gbKA2aXeye5v/eC5hUNC2o/r3m0tH0YmaxtysspYavM88nGNfql/dPPVoNK5p0/3fY7k3yRXZhCKcnF0z16BrPUT87yxygpHYIs2qX3Uz2G3A3irZl0ejp34KzHxeXa5/SHZTFxV7YvFxc7CXD68XuRXaJN4tfa18XF9JfIqOeI3qcjW9PukVVUNH0Wtoq5bgdtZvnV/dRdGfIphGv0K4+c3ez4zyKzmQxrfhMcrXL7p20QUojcxQ36Mkn6SYp7/kE4xsMxdEEFU3ZCxZ/RlGz82122I6y3ezB+yuHLH+Mbl/3OE3RVNzjrHbZGY6KGtGDLJmVXzoyfQXPJxjTU5IpqGiak4bqq99Gf2RRf60dyGJK6gZdITMcoQjdguZo6j5K1qzSZTdrmLF4FN3LUg7745olzycYQ/oE4OhCiqbs6e9fUbQni+o6upGlFE7SdRiOUMRJ9OfeHE2F35SVLjtTax1Ft7KUw/oRXfnzCZ7qackUVDRlx/jOU3G0F0U7sti3yRFdLPeM8m67vZ0TTZmn7qdVuuxMcxbPTOMFaba/BN/Lekzc5lOPPAKKplfSVil/oitZ0u6jX7KUMnhD+EDlH881o2PdbsZoKjyiq3TZmS4fP0tXmknq+Sc2jD6h9pGenEwhRZPh0qC76Lcsac3oQpZSSuc1h+CtNEbGr7jXmRdNRXdwrHTZmeYGXUSXSjV+nh3tywvDXBgHT8zND3i7OKj2qAO/jadf8xtQNBnuOTiwV12a+txPvyq8QvImNW0/tPfyo6loalOly840Oegy+n0QnzHQftfltUHyZueNcOvOtJX3T73eK6BoMlwc9Cf+Luu6Mp1EKRwxCUXe1IHrTqczL5qK7vJa6bIznYP/E7Wj6Obq7M9dFN3tyosDPLnTxeMvsdtcetr1KgFFk+GeAxfpjtKtKZo25M1BM0yijx1Ed3EHIC+aig5RKl1236UB0ppR9CeZDn6mI6qzMMSPEy5Pu/h37eMTgjegaDJMdT2O2r3LB3b015ospnH7AfMRilJbrahzhUpeNBVtlkqXnem+O0dnh7Kkiy7qLfelbrzksKffluDb454GpgUUTYZ+dr0Vncui7nIbo4m7NpmPUGRkV8uNpoJvykqXXdn+e2ua4+TF9ZpPTyZt48vjLvQNKJpMz9XS32DJflW/jHSfu7M4YFPeHDTTEYpqRK3kqsPcaCr4mqx02ZXdi+3YdNGKD+dbxkqm2PcPjzgICSiaTCMmdd1Xuj5pHJzdRZfHprEmd87pWmQ6G16/6x6W5EVT0SFKpcuu7Aa2P013IXB/lsrM2MkU+zryPKeAosl8nukkOaP7cKLOTNE0wsMEq880h/B37+rDvGgqmkRY6bLLXqs5aCdKBukGOD+39zE3iC20/mm0MfGAoilnwuvuwdmfs1/62MQ4r6nkvkNhMLTcXrt3AiEvmoouvah22ZU8krth6DU5f0XUxJIptvJ+hI8bUDSV3UJ2YJJT1+QeSu8xw/WqN9GxLOVGU9EFq9Uuu5KrPo6itiz1OX8d+cdal6zxeDaWSm+1EFA0lT3lohWdyFKKJxPhpuulNEbfcdQ+63qImvq/8g8pRYMK1S677BHdr5vUYMFFdCdLfb5eq/lKLmfpiK9pMZ4yMfr+sfjsd0DRZBwy6dPd7N4NUnosX3Tpisw35WUyQpci/9C3UdRnr3jZZY7o9lPDS9vt9JWbicrcs/BRzwVRy0WJHFI0zUuDmF1ELVlK6T4oJ3CZi+gOkg5TR06vqXCUruJll620u+hWbvBcv4pamavoKlJnMznXDeRbz5/sFFI0ZacO/rzs3api66E/etL1gwmXicJzTjljTYUniatedpldtNGO7jp3Ud2/M9xO9Xs1Ok1Pe+rBas5kp6CiKfPlv9crk3rT8F3GLVG6is45maOp+BCl6mX3KnPnkKP4qPcmvvlA66e81PVDpR4E57FXT33qweaS6XssqGiayaT6ddTuTBzcuoqi4YpRaoNOkyg6FjZHU/EhSuXLzvAkumR87tbwVLFqTJ6bH+fe4muLmRNOQUVT9p5oW/pr7P7yPP4yM9zikpGmnoJBBGM0lVwSVvmyix+rm9XInmjR1ipxGvj9uPcW/zY02SmsaMruYVvnD50vs6bh7oM8IbOv4EF0xmgqmbVS/bKbHfnoZowbQTqk7MLBUWx8SZdNYNFkeAjgVuPguJG9pkkfAVeiZCZlUf2Qdhl21TySpb6ySfQBlN3ciMc3T795tktmZWpTcpPeHEsyadOs8+X3/UNvECWwaHrx+h+dehjBvypRMhPzqAsVVssuMA+h7EYsNR6MkSO0aHrxl+H5hQY/nvr0rMoyj54YrZWePgii7OZWc3uaPev2H43pquCiqfRSOsHFc8NGnrWyUT6sG0bZzRRff6CDa4VzwLnCi6YXf5VcSxfbpJudZRioM/nHCGN0oZRd0Wkr3aP6VJXrU6YhwGh6MVty8fQP9Z0RcJPZ8usQfqjVUU6FB1N2Lz/nhJMOpiWuHS8SYjSVnulc5lkFOcof8vplpI5AQGWXF04EU4kwo+nFXMHNRGtPe2xWGOaLj4Y3Rjx5EFTZzX1YHk6nbwsEU5lAoyk/nAimYjML+eG0sThqdzO0spt5+6V7D7aV2tI7euUjCDaadDgtZKbqrHxkkKlUXjiNHkzBlt3c4x53FLaAo0nrfJklnW2+zEanm234ZN3641ov7LLDKKgRjS+zx3u1UKsl+bReq3167MRByg5lqBGMY/5pM3MoO5ShRmABZYcy1AgsoOxQhhqBBZQdylAjsICyQxlqBBZQdihDjcACyg5lqBFYQNmhDDUCCyg7lKFGYAFlhzLUCCyg7FCGGoEFlB3KUCOwgLJDGWoEFlB2KEONwALKDmWoEVhA2aEMNQILKDuUoUZgAWWHMtQILKDsUIYagQWUHcpQI7CAskMZagQWUHYoQ43AAsoOZagRWEDZId+r+Zjq/Nfvx2lTI97xe5NVZ9dx09vOo1cTC/Kan4gm7/i9yaqz6zhqVRpXqfWnPYLVFUSTdzzfZJXZdRzVz37Pk59o8o7nm6wyu46rutnve/ITTd7xfZNVZddxVTf7fU9+osk7vm+yquw6zkqy3/vkJ5q84/0mq8iu46wk+71PfqLJO95vsorsOu6Ks9//5CeavOP/JqvGruOuOPv9T36iyTv+b7Jq7DoOW61C8hNN3qnAJqvErjMWHc4AwiVJ4BxZPQBhkiRwjlLRNLXlT5815U94owqb7Jl2nWCjCYDLiCYADiKaADiIaALgIKIJgIOIJgAOIpoAOIhoAuAgogmAg4gmAA4imgA4iGgC4CCiCYCDiCYADiKaADiIaALgIKIJgIOIJgAOIpoAOIhoAuAgogmAg4gmAA4imgA4iGgC4CCiCYCDiCYADiKaADiIaALgIKIJgIOIJgAOcjmaAARMksA5snoAwiRJEJoqfO6Z1RlZgieqsclCDY3nUYXWXVALsgRPVGOTEU3TVIHWnVlX63SbvFKRTUY0TVMFWndBH47TbfJKRTYZ0TRN/reu/gZWdJu8UpVNRjRNk/+tG38D023ySlU2GdE0Td63bucbmG6TTyqzyYimafK+dZNvYLpNHqnMJiOapsn31pVvYLpN/qjOJiOapsn31u1+A9Nt8kZ1NhnRNE2et27vG5huky8qtMmIpmnyvHX738B0mzxRoU1GNE1TJVqXEvEOdYcSlAhsoO5QghKBDdQdSlAisIG6QwlKBDZQdyhBicAG6g4lKBHYQN2hBCUCG6g7lKBEYAN1hxKUCGyg7lCCEoEN1B1KUCKwgbpDCUoENlB3KEGJwAbqDiUoEdhA3aEEJQIbqDuUoERgA3WHEpQIbKDuUIISgQ3UHUpQIrCBukMJSgQ2UHcoQYnABuoOJSgR2EDdoQQlAhuoO5SgRGADdYcSlAhsoO7CM7+w+KWmLS1+nJ+V1woEXiKPbC30vXq7uPgtbrvFxfd/yWujC7zuxms8D819WN6Up8knVhbLPnfAJfKE1kLi5bulNWm0xMbXD3Pyb6MJuO7GbzzvvF2VjzpgfWFG/t0o2BJ5Umsh9npZWmvQ6lv591EEW3eTaDzPmHe1WOHuFmiJPLG1kLtvxR6xfwVad5NpPK+8yt3VYuv5nzrIEnlya+Fl/r4VW30lP1cmyLqbVOP55P2/5NPl+Sw/mBFiiTy9tYI3/z/SRHn+9V5+skSIdTexxvPHzBf5aLl+qNpL+eEh4ZXIOK0VukVpoSJLIx0QBxhNk2s8b8yu6p2p1Ppr+fFBwZXIWK0Vtplv0jpFfqjvo5xuCq7uJtl4vtD72kj+x/ihQyuR8VoraCPtXLE15tNlTLTxPDFTk89Uas10lBJYiYzZWkH7Ki1TbrV89wotmibaeH4YOY0104cOq0TGba2QLUm7jKJWOmQSWDRNtvH88Fk+z0i+yptSwiqRcVsrYAujDNH1fJF35Qqr7ibceF54OXipRbEfKnshRlAlYm6txtFZY1eWU0ytFa6XphPfdd10Bw35y6Cy0whh1Z151kDj19nhviwPqMQ5GPMcru0/USSLg1blbX1BlYihtbYvoo7WL3khJdta4TLMuNj63e40XfukLq+klLVdUHVnmq5SP3/otN7dgbyQUoXCey2fZdBR/KFlecgHeWNPSCViaK2fD9HD5dnZ2W0U3WR3sExrBcvQdHu6ym4vz67v9O61La+llMweDLzu1JauuIfrs2vdiEfyUkoFpl6uyEdJ27qMorxek1ofHmILqUSyrbXdiq6T3Upn1GVnIS3TWsHKNt3WfXSbHMudtKOrzsKAkrYLu+6Uuo6iTndpS++qe51X0vwvvDn5JGk/W9HdfiMvmtQbeWtXQCViaK2rqNXtKx1FUXbUZLi1QmVousvoYUcWz6LopyymFLdd2HWnDqJIRhDqd9FFspTmfeF9lA+Ssh9Fv+sqP5qGTzsFVCKG1mpFx7Kk1H10Jkt9nKRLFDdd/SE6kcWUJXmvWdh1p277ffSjc8NoU3HjecAws7lxF4/550fT5lBXMaASybbWlvSqO66ja1nqG26tUGUPSfbSxyF/TEd0G4VtF1DdGY7n9P5pPDXXU9x47nslnyNtq3OAkh9N6p28WYRTIobW2k0fxF1GTVlKGWqtQJkOSeqpw19j0xUflIRTd6bGO4/uZSmP50d0H+RjZBVE09B8rnBKxNRa7dTpkaZhHLwis9/G9V5aI8+VqdekPsm7jcKpO1Pj3Ua/ZSlPYeO575N8jKyCaPombxbhlIiptW76cVR/6A5Mpg21VqBKbudRbxmG6UoG6sKpO1PjtaNDWcrj+Shn/oU5BdH0Xd4swikRU2sd9I/ozvsn61KGWitQJVeA/Y5aW7KYtiLvNgq67nY6ZbdzcnF50jC1nFbYeO7Lv4q+IJo25M0inBIxttZl9NA5pNu6jNqGE+DDrRWowts11K+itrEPsC7vNgq67vTuubN13ZkMHrWyU1ZihY3nvsFHxqQVRJMavKA+nBIxt9bZQ9RqNptRdGMuEW4/oOUV2nbj4OzPfd7epYrOMgVdd3r33Gu1/5w0Ds9aUWr+Sprfp+jW5VNkFUXT4H2IwimRnNb6lVwIdmPqM2nctUnLK7SjuOXuDdNyEkVtF3Td6Xa7kRMw282obbi23PfCM02ATxRE06a8WYRTIsbW2m9Fd2dHjZPzdnTbndycNtRagcortJ/N+zicmuZYL2y7oOsujvTuqeF6yzCfzvvCy390TEE0rcmbRTglYmqtRjueOx/b/hPdGy5SHWqtQBXdonHrUB8Nn8tfBhSeQgin7gyNp6PpVhaVOo4iQ+F5fv4l/8ZoBdFUkzeLcErE0Fr1+9TkgZbpWqah1gpU/iyVjv4FYQMKJ16EU3eGxtO7Zz/Mt41XIHo+a8V0cU6iIJqGrs4Jp0QMrfUrave/sPRXWfbby/trmSYif25v4nfUNpwDL5yuGk7dGRpP756pAbq2Kdg9n+v7Rj5GVkE0fZQ3i3BKxNBa56l+dXxVWPbba6i1AjUvrZFn1/jFX3i3q3DqztB4uqOUmm5huq7c91uFzeSeoiuIpqGHGIVTIobWGrgstW66qRePfOrILTTxYDoDXniOKZy6MzVeO32rhsc3ngdyn0ObH03Ds0wDKpFsa12lL0vdGehlJzyfkzsx2ab7eZaeZmk6Jikepgu67lQzNa65Zepyej/GmdvRzo+mBXlrV0Alkm2tk6glS9q+4XaDw60VqmzTXaSvndcHdNl7fBQfkgRdd3Hh9a6K0nWXndjk/62f8zraedH0I9NRDKhEsq11kE6jkygauogu21rBKm46w/nvsrYLuu7UTrt/EHedvXizCoW3IJ9lWG6vKTPwH1KJZFqrfh/dyKLabmdvisItUboyp5m2HqK77h6lm+6PLPaVtF1IdWc4R3cetWSGr+40ZafTV6DwZnKe4J8XTRuZNA6pRLKtpdvpT/J9v3+XvXw+21rhyjSd7jbdJEdxB62olZl2sV7SdiHVneH+qtv3UavT6zxsp88Si7LG88Jb+TA98YUDfcM3H8yOnQRVIpnWUsft6KH5++yiGUWtzHAJI0192QcW6QPg6Kb5O75WxXB9b9lgSVB1Z3ja0/5DFN1d/mnpNsxeIOX/SFNs+PKLJJK6hqLJ8Oi9oErEcLHKjtyboi0XrKTwhMy07HmmPWm66Hd2vmVp24VVd4aTdNtJ6z0Y5jRVpPDm8u+MkrFpeGBxWCVibK29xnHDcGmvqbUCNmsaO9hvnJieya42Xsm7coVVd8bG226c/MxefzBK43ni9T/kE5X6l+lW6GGVyLitFbJHfAmOkOqB1d1kG88Xf/1LPlOxH+anFQdWImO2VtDmRo31UVI9tLqbaON5I/9SugHmy8FCK5HxWitsr0eL9ZGekBVc3U2y8fzxV97My5TNnI8cXImM1VqBe/VddyfLrM/LTxcKr+4m2HgemS28r3x8ePI97wA2vBIZp7VCN1PybBXddrXR5uQEWHeTazyvlDwpbDn37vsBlsgYrYX3m9JIORbl58oEWXeTajy/zBVEcq2glxhkiTy5tfDi5eeC/Wtp5JvIhFl3E2o83+TtbsW7Wpgl8tTWgpa3f21+ecS+FWrdTaTx/DO38E0+aM/Kx5Jhk1BL5GmthY6XH75uSJN1bSx/eNQ4Sbh1N4HG89LM2y+1WpLLK7Wld+WDJuGWiPbo1kLP64/fask8wvVa7dNf8urIgq67cRvPZ3Mjz3UPu0QSo7cWhs0/8Smz1J321MYLAyUCG6g7lKBEYAN1hxKUCGyg7lCCEoEN1B1KUCKwgbpDCUoENlB3KEGJwAbqDiUoEdhA3aEEJQIbqDuUoERgA3WHEpQIbKDuUIISgQ3UHUpQIrCBukMJSgQ2UHcoQYnABuoOJSgR2EDdoQQlAhuoO5SgRGADdYcSlAhsoO5QghKBDdQdSlAisIG6QwlKBDZQdyhBicAG6g4lKBHYQN2hBCUCG6g7lKBEYAN1h1yv5mOq89/X8pqnKBHveL7JKrTzOOit6luQ1zxFNHnH801WoZ3HRavStEqtz8hLniKavOP7JqvOzuOifvL7nvtEk3d832TV2Xmc1E1+73OfaPKO95usMjuPk7rJ733uE03e8X6TVWbncVOS/P7nPtHkHf83WVV2Hjclye9/7hNN3vF/k1Vl53FUnPwVyH2iyTsV2GQV2XkcFSd/BXKfaPJOBTZZRXYeV61WIveJJu9UYZNVY+eZtJn5D4ufazWd2wB8t1JbWlyYfyl7t79efliWTwSgOlYWXsk+7qX3K/GH2D85vWg229G4xv8NDmjKn/BGJTbZ5HaeZvPy9LQR79jfF2dlR/fNm1Wl6geXLflIAKqifXW0rdS6l2Prr2tK7V5VoqcDIKv5U6m1t7K/++OzUtsX8hEAVFFzT6llv47qZnWX6ZQeE1BxV1vqu0/j4a/X1BbjvUD13e+pf/pzUPf232rvXtYcQJU9HCj1UfZ8173+tzrkYA4IxKlS72Tfd9vsmjqUdQZQfb/VphcPRKipPfpMQEAO1ZoHV658VluMMwEhae+rmvOXD79WinNzQFha2+7fdGVFncvaAgjFtVp3fOrlW7XNQBMQnIb6LBngpplVdSWrCiAct2rT6ZHwBbUnawogJAdud5tW1bWsKICQ6G6Twyfp5tQWI01AkBrK4WvpFpgHDgTqt1qSHHBQjUFwIFB3akNywD2zqv4gqwkgMLtqXpLAOe/UT1lJAKE5UYuSBM5ZUCeykgBCc+nuYNMnLlIBgtVU3yQJnPOVUXAgWHdqVZLAOTVuOgAE60GtSxI4Z01xpyYgWHUlSeAcpZgLDgTL5WiSVQQQHkU0AXAP0QTAQUQTAAcRTQAcRDQBcBDRBMBBRBMABxFNABxENAFwENHkpeb56a+GdnR62uR6HlQR0eSd1uVBXaX9vOBCaFQO0eSZZkMCacAeT+xDxRBNXjEHU4xwQrUQTR65zw2m2B633nNXf3Dwd5MHBY2EaPLH9f9JCOX5LT8Ip9xfDA0O7p/eyD8hH9HkjRMp7AIHfCE753pPNs6A7XNOrJYgmjzx0FB/S1nn+lvtcq7OLeZgihFOJYgmP7QLh5n6dlryBjjgLjeYYtucuShCNPnhUMq51B7fxc64/F/ZKHmO5QdhQDR54aT8aK6Lx7E7ov1Ltkiuv1WDTm4uoskHF6Mn0988j90ND3ujbLTtW/lxDCOaPNDelkIeSf1O3gaLdDKN5P9x4iIH0eSBUynjrrMh8nLXgbwN9ox62oITF7mIJve1BifsZRtGXhZ/Kyb02db+KRtjBHtMRjMimtx3LDXcI52lxFXUlpd79uSNsCWzyYocypswgGhyXnu40zSoaZgmTrfJrkw/N7bd+HX2c1/+kkIv14xoct6VlLDZgWk/4CSdXQeyHVK2r5J/ah3JCyn0ck2IJucVDlvUW6b9YEfeCituZTOk/HyIopuLs2YriprZr5ILeSNSiCbXPRROKT6JbmRpAIcINmWP2nYeorvOq/XfUTR8RlV3qZjCn0U0ua7weE7XtHH+DEd0Ft3LRkhpRg87sngVtXdlse+PvBV9RJPrhic1DbiKLmVpECd9LPotG6FvK3VLm23TBZFsryyiyXVFV2Lt5U0U35c3w4JsP/Ygivo9pXtDdtU5ossgmlxXNAp+kXe4xzi4PXeyDdL2U5PDm6aerpy/Qx/R5LqCa7HyRpo0eTOe34Vsgjx3pvuV/pI3o4docl3Bpb1nptPUCS4atabkRsn62M0w3YNb2WQQTa7Lns7pMs9pSjB2YY1hTmXasXF8cFfejB6iyXX5l7D/Ml8QEduWN+P5Fd9zYKtlmNfUOYeHQUST6/K/hG+MRd7BpQ/2dCcwGdWb0b3x+4TbDwwjmlyXO69J94wMF4smGLqwp/C+f5d5d3Lirk3DiCbX5Z7wOYoeZCmLEz725H5faJd5veC6vBk9RJPrDJc9JK6ia1nKYpqMPbmnJlRdb5ac43MmomUQTc7L+xZ+yB+Gsja5uNU8//PIS4vjOYjTM93fbpR7G7n6n6idl1sNeTN6iCbnZS9r6NDFnDvgOulLsgYyMPmCPzVsnytZoV/ZgZPeb9hu/LocmHRVuWjK2V5q6zZ+BHOOI3kzeogm5+Uc0Z1ELVnKmvTx3EjRFI/vbjeO4xs5bmXyYLCDd5j698pF0x/5kEPiZMqf2f9b3oweosl95iO68/yp4BO//c9R9oAjG03Hqn7a+R//2VU7w2sgv6HdvDo9jPtWp51XJ+O24BDSQjSZr7guTiZm72cRTe5rSvkOus55XTuXN07MKNF00///3tYzN4xK/4b27/pEn0i1WzCGbCGajPeKiMeZCk7dcaeILKLJA8ax05ucWzUptTvxQfBRoukkNc/zV2ZfG/wNLf2JJna3u3bR6S0b0WT6ytAHbEW3kJj4l0kFEE0euDPNHzbd9if2t+5PTdoo0bSrjmUpis4zF14M/Ya2PraZ1CO171yLJsOkS53UuTP3403GhMssoskHpvPRZ2c5p3syKTK+UaLpIb4lv/iTmd08/Bt0z2JSh3TXzkXTuWyJvtu8wfEEM2QNiCYfFA1TDNuZwojqKNGUdpqZ3Zz5DYfdod9GQ7pPreN4fLx+lAxqtxqNVtS+iEeOdw9T/cCHi05b7MsEhdtGY1fVG5pMmGj/bmwptXUgd9uOo+nhd/yL936lLlNrX3Z+8UHvUSad/919fOQ8geaL+4QDdAoXDIHHl/wig2jyQu+m96W2JnWclPbYaGpkbvKR+Q2623TZWej2a263OhGjc6Xz+r0OiVacQp19+ld3+Kxzlms3/s9WJ6/64zpJ1+kuvofMrv4l0inTv/1ev7Qdv7LTa5r4JbUTH3f9lFR40P+7+86B2CSSfXia/vBTCeTlLkaaTIgmP9zH+9YI6lN5Nscjo+m2nhnvyvyGVneaoURTezeJifZRfB9I/adSN3vqV9yFutXHs3uSTQdq6ype/LOdTJF4aDaP1HZT63S2dL7t/NGvt37JOLuOhd36he4vPegV7o7Tt7aSJ1a2L+pqW7JJZ9K+Ov7Tvu2G4FiGTlwMH1TKy4LbRBgRTZ64/T8p5GLTuXjucdF0Vc+OI2V/w5a8IjvuTXxnvI69ZDxdH7TF15x1XHR7FnfxpImO215n4zQ11nSg9uSw7VBtxSGjf8u2dJbOe+/9qXblp+7q3cF7/eukGzcJ9yP3cvW3yTT6uRVANPnifk/9LcWca/uR16+N6kjtnHbJ/muOpmbz8qQR38lxWDaa9uSgT6Lpotd5uE8+hP44/V9zINNIWxe9EeNf3d+YiiadV90W0ItxB1L/lu7hUntb+ml/ehkV55Ukom687Fo/3YjfJNr/8gw6M6LJG+2ixz5pf6t96XdMXPoyk14gmLZP5yeODcM12Wg6lESRaDofPs+muxP9j3Od7Q9edG/lmYqmw9TBUXxU2Emc3hFadx3S69Kuy8R0vd7JOybkpvChyz1/T7CrVjFEk0cu8+63q+ke1clEhklMjtRWfBKsQ/oW5mhqdAat97Ljutlo+jkYTdLL6Ru8SHk7c2mLTqvk86aiaSdzLVr6t3R/cCvdq9uTH5j4jOzC2QJ9XDyXh2jySes4J5x0MB1NYdJAVzZYcqIp1tR9rJ/D95PN/oYdeaU7SLyn6qfpfsvgYeHe4LX5rWbzvHsyLRVN9UwfJL3vXySr3OqeG+zortjkL/6/KbzdZaI3moYMoskveeE0zWB6ZDTpY6mtzB2AM7+h3e3PdKMpmRZwnPxF6w8SxQ567785anT3+eFo0qGTPU3fP1d4mazyne7WSQ9Q2+l13iZ25UxX/i1QEn+rXUbA8xFNvrm/OBhOp5/nUw2mR0dTPNtoaPZA5jfogEh6Rd1oih5OO6e1tiWRBvo2+v1JgtzGU512G43TU903G46mm/4oeFfvt2sSTZlL3Dr/OJiEE6IbqcjBcN8SKUSTh9rXvxryjbzfOLqafoE/NpoGLqjryPyGq25opMNDx67+TN35Tr2p2tph8v77LbUTz1LSdMIMR5OOu/7vShii6T6Tm7HBJJyU+8H7VA1oDK8rBhBN/rqf6CmlIo+OpsPhI7rh39De7QbKUJy0jnuTJdMD3/tJYOl3dYPYEE36IDE71pSJJv1aOvTEdKIpP5wIpjJEE8qNEE33v9Pnmkqj6byXPJmezq8kagbHpZNzb7rD0xs3Ng2Db2eOykzRtGsaVppWNOmVPs/cDmX/N4NMpYgmlBshmv4M3OVEZnT3Df2G1nav+5OJJukOqfQjiG+TTLpOTT7Sh36ZaOrOBOgzRdNP06Uh04smrXMEnowQPs8ReBUQTSg3QjS166nT9K368DHT4G+42+9Hhiw1e+M/Oobi/NG7cX9I6Fcyc/KqH00PW/1o6mVYb263/vf6TjwkboomHXD93/xbEmmq0SSe7wi8CogmlBshmnRfpN7b8w7TM7k7Bn5DfAPeXo4l4XHX73RdJveh09HUvR4uvl64cyCnf0oO6Np7+nck0aQTJ1nQr273emu/kydemaJJd656v/mmG1PPEU14DKIJ5UaJpvjkWbKXtw6zA83d39Bunh/vKrXVn2oo4aGPspK4uJNL3ZQ6VbtJ2F3Xu4dgu2q7E0MPP+u9sSZ9ANj7v+kXk2y6qnd/iyGadLdJfvOl/BjR5B6iCeUGzzJ1dmYdTX2dwZ6m7sfs/jw9igdV0iPYHYO/4TB1ZCPhEd+u6ej09FTHWnJvc/26/n/s/zo93OvPLtfdJ3VwevprS13q474kmtp7qn54etCI+2nxdYY7h6cnOv32u78l/qOjF03RlT4abByfnuzoVUmudiGanEM0odxI0dSfqb6XvQFC/zfsNH4PHOx1w+NWh1KsfpLEUPy6PHNzqz+KdZvM59q56txrTl6LbwzX/ZvuLsXqx/3f0tWPpuiuc62f/j29/hbR5BqiCZPTbl6fXqTuEf44reb56WXv3Umo3F6dXksCiZs/pxdD0aePEq+b3dGj6F7/wAjr0Lw4vc5GKJxBNMFN6f4OAkQ0wU1EU+CIJriJaAoc0QQ3EU2BI5rgJqIpcEQT3EQ0BY5ogptOTwcnDSAwRBMABxFNABxENAFwENEEwEFEEwAHEU0AHEQ0AXAQ0QTAQUQTAAcRTQAcRDQBcBDRBMBBRBMABxFNABxENAFwENEEwEFEEwAHEU0AHEQ0AXAQ0QTAQUQTAAcRTQAcRDQBcBDRBMBBRBMABxFNABxENAFwENEEwEFEEwAHEU0AHEQ0AXAQ0QTAQUQTAAcRTQAc5G40rat7WUcAwdl2NppW1I2sI4DgqA1JAucsq2tZRwChuVffJQmc80VdyEoCCM2NqkkSOOejOpWVBBCaa7UkSeCc9+pQVhJAaC7UJ0kC57xSW7KSAELTUO8kCdyzppqylgDC8vCfzVkJAvd8UieymgDCcunuKPiLF/NqV1YTQFgO1QfJARdtqDtZTwAhaf9XzUkMuOiz+iUrCiAk52pFUsBJLzfVrawpgHC0/qveSgq46bM6kFUFEI5jtSwZ4KiZdfVH1hVAKFp19VoywFULaudB1hZAIA5c7zTpbtOqarRldQEE4URtuHx6LjG3ro5lfQGE4EqpN7L/u2z+39wbBQjIzX/Uguz9bvug/nMl6wyg6m7+q77Ivu+6L4pjOiAQV/9R32Zk13feglIHnKcDAnCi1BdvkunFi/l/ql2mhQNV1zpQnowzdb36rtQhj34CquzhtK42fDg3lzb7eVOp45Z8BABV0z7fUmr5lezxHplbUqp+cEk6AdXTvj7aVqr2l+ztnnn9TWn7l01uywtUx03z6qCud+1Vt+81UOjlh+U4nbQd+ROAz3blz5UFDw/lBsy8+1SrrcnHAeC7jVrt8/uXsn+nvXjx/wFymLh3V9ByEQAAAABJRU5ErkJggg==;" vertex="1" parent="1">
          <mxGeometry x="109" y="136" width="490.36" height="261" as="geometry" />
        </mxCell>
      </root>
    </mxGraphModel>
  </diagram>
</mxfile>
